STARTFONT 2.1
FONT -Linotype-Helvetica-Bold-O-Narrow-Sans-10-100-72-72-P-46-ISO8859-1
SIZE 10 72 72
FONTBOUNDINGBOX 10 12 -1 -2

STARTPROPERTIES 22
FONTNAME_REGISTRY "-"
FOUNDRY "Linotype"
FAMILY_NAME "Helvetica"
WEIGHT_NAME "Bold"
SLANT "O"
SETWIDTH_NAME "Narrow"
ADD_STYLE_NAME "Sans"
SPACING "P"
CHARSET_REGISTRY "ISO8859"
CHARSET_ENCODING "1"
PIXEL_SIZE 10
POINT_SIZE 100
RESOLUTION_X 72
RESOLUTION_Y 72
AVERAGE_WIDTH 46
FULL_NAME "Helvetica-Narrow-BoldOblique"
WEIGHT 10
X_HEIGHT 6
QUAD_WIDTH 5
DEFAULT_CHAR 32
FONT_DESCENT 2
FONT_ASCENT 10
ENDPROPERTIES

CHARS 190

STARTCHAR space
ENCODING 32
SWIDTH 228 0
DWIDTH 2 0
BBX 1 1 0 1
BITMAP
00
ENDCHAR

STARTCHAR exclam
ENCODING 33
SWIDTH 273 0
DWIDTH 3 0
BBX 4 8 0 0
BITMAP
30
30
30
60
60
60
00
C0
ENDCHAR

STARTCHAR quotedbl
ENCODING 34
SWIDTH 389 0
DWIDTH 4 0
BBX 3 3 0 5
BITMAP
E0
E0
E0
ENDCHAR

STARTCHAR numbersign
ENCODING 35
SWIDTH 456 0
DWIDTH 5 0
BBX 4 8 0 0
BITMAP
70
70
F0
70
E0
F0
E0
E0
ENDCHAR

STARTCHAR dollar
ENCODING 36
SWIDTH 456 0
DWIDTH 5 0
BBX 5 10 0 -1
BITMAP
10
30
78
60
60
30
B0
F0
60
40
ENDCHAR

STARTCHAR percent
ENCODING 37
SWIDTH 729 0
DWIDTH 7 0
BBX 6 8 0 0
BITMAP
44
EC
F8
50
28
7C
DC
88
ENDCHAR

STARTCHAR ampersand
ENCODING 38
SWIDTH 592 0
DWIDTH 6 0
BBX 6 8 0 0
BITMAP
18
38
28
38
74
D8
F8
6C
ENDCHAR

STARTCHAR quoteright
ENCODING 39
SWIDTH 228 0
DWIDTH 2 0
BBX 2 3 1 5
BITMAP
C0
C0
80
ENDCHAR

STARTCHAR parenleft
ENCODING 40
SWIDTH 273 0
DWIDTH 3 0
BBX 4 10 0 -2
BITMAP
10
20
60
40
C0
C0
C0
C0
C0
40
ENDCHAR

STARTCHAR parenright
ENCODING 41
SWIDTH 273 0
DWIDTH 3 0
BBX 4 10 0 -2
BITMAP
20
30
30
30
30
30
20
60
40
80
ENDCHAR

STARTCHAR asterisk
ENCODING 42
SWIDTH 319 0
DWIDTH 3 0
BBX 3 4 1 4
BITMAP
40
E0
40
A0
ENDCHAR

STARTCHAR plus
ENCODING 43
SWIDTH 479 0
DWIDTH 5 0
BBX 3 5 1 1
BITMAP
40
40
E0
40
40
ENDCHAR

STARTCHAR comma
ENCODING 44
SWIDTH 228 0
DWIDTH 2 0
BBX 2 3 0 -1
BITMAP
C0
C0
80
ENDCHAR

STARTCHAR minus
ENCODING 45
SWIDTH 479 0
DWIDTH 5 0
BBX 4 1 1 3
BITMAP
F0
ENDCHAR

STARTCHAR period
ENCODING 46
SWIDTH 228 0
DWIDTH 2 0
BBX 2 2 0 0
BITMAP
C0
C0
ENDCHAR

STARTCHAR slash
ENCODING 47
SWIDTH 228 0
DWIDTH 2 0
BBX 4 8 0 0
BITMAP
10
10
20
20
40
40
80
80
ENDCHAR

STARTCHAR zero
ENCODING 48
SWIDTH 456 0
DWIDTH 5 0
BBX 5 8 0 0
BITMAP
30
78
78
D8
D8
F0
F0
60
ENDCHAR

STARTCHAR one
ENCODING 49
SWIDTH 456 0
DWIDTH 5 0
BBX 4 8 0 0
BITMAP
30
70
F0
30
60
60
60
60
ENDCHAR

STARTCHAR two
ENCODING 50
SWIDTH 456 0
DWIDTH 5 0
BBX 5 8 0 0
BITMAP
38
78
58
30
70
60
F0
F0
ENDCHAR

STARTCHAR three
ENCODING 51
SWIDTH 456 0
DWIDTH 5 0
BBX 5 8 0 0
BITMAP
38
78
18
30
18
B8
F0
60
ENDCHAR

STARTCHAR four
ENCODING 52
SWIDTH 456 0
DWIDTH 5 0
BBX 5 8 0 0
BITMAP
18
38
38
50
F8
F8
30
30
ENDCHAR

STARTCHAR five
ENCODING 53
SWIDTH 456 0
DWIDTH 5 0
BBX 5 8 0 0
BITMAP
38
38
60
70
78
18
F0
70
ENDCHAR

STARTCHAR six
ENCODING 54
SWIDTH 456 0
DWIDTH 5 0
BBX 5 8 0 0
BITMAP
38
78
C0
F0
F0
D0
F0
60
ENDCHAR

STARTCHAR seven
ENCODING 55
SWIDTH 456 0
DWIDTH 5 0
BBX 5 8 0 0
BITMAP
78
78
18
30
70
60
C0
C0
ENDCHAR

STARTCHAR eight
ENCODING 56
SWIDTH 456 0
DWIDTH 5 0
BBX 5 8 0 0
BITMAP
30
78
58
70
F0
D0
F0
60
ENDCHAR

STARTCHAR nine
ENCODING 57
SWIDTH 456 0
DWIDTH 5 0
BBX 5 8 0 0
BITMAP
30
78
58
78
78
18
F0
E0
ENDCHAR

STARTCHAR colon
ENCODING 58
SWIDTH 273 0
DWIDTH 3 0
BBX 3 6 1 0
BITMAP
60
60
00
00
C0
C0
ENDCHAR

STARTCHAR semicolon
ENCODING 59
SWIDTH 273 0
DWIDTH 3 0
BBX 3 7 1 -1
BITMAP
60
60
00
00
C0
C0
80
ENDCHAR

STARTCHAR less
ENCODING 60
SWIDTH 479 0
DWIDTH 5 0
BBX 5 5 0 0
BITMAP
18
60
80
60
10
ENDCHAR

STARTCHAR equal
ENCODING 61
SWIDTH 479 0
DWIDTH 5 0
BBX 4 3 0 2
BITMAP
F0
00
F0
ENDCHAR

STARTCHAR greater
ENCODING 62
SWIDTH 479 0
DWIDTH 5 0
BBX 5 5 0 0
BITMAP
40
30
08
30
C0
ENDCHAR

STARTCHAR question
ENCODING 63
SWIDTH 501 0
DWIDTH 5 0
BBX 4 8 1 0
BITMAP
70
D0
B0
20
40
00
C0
C0
ENDCHAR

STARTCHAR at
ENCODING 64
SWIDTH 800 0
DWIDTH 8 0
BBX 8 10 0 -2
BITMAP
0C
12
2D
55
55
AA
AA
94
40
38
ENDCHAR

STARTCHAR A
ENCODING 65
SWIDTH 592 0
DWIDTH 6 0
BBX 5 8 0 0
BITMAP
18
38
38
78
78
78
D8
D8
ENDCHAR

STARTCHAR B
ENCODING 66
SWIDTH 592 0
DWIDTH 6 0
BBX 6 8 0 0
BITMAP
78
7C
6C
78
F8
D8
F8
F0
ENDCHAR

STARTCHAR C
ENCODING 67
SWIDTH 592 0
DWIDTH 6 0
BBX 6 8 0 0
BITMAP
38
7C
6C
C0
C0
D8
F8
70
ENDCHAR

STARTCHAR D
ENCODING 68
SWIDTH 592 0
DWIDTH 6 0
BBX 6 8 0 0
BITMAP
78
7C
6C
6C
CC
D8
F8
F0
ENDCHAR

STARTCHAR E
ENCODING 69
SWIDTH 547 0
DWIDTH 5 0
BBX 5 8 0 0
BITMAP
78
78
60
70
F0
C0
F0
F0
ENDCHAR

STARTCHAR F
ENCODING 70
SWIDTH 501 0
DWIDTH 5 0
BBX 5 8 0 0
BITMAP
78
78
60
78
F8
C0
C0
C0
ENDCHAR

STARTCHAR G
ENCODING 71
SWIDTH 638 0
DWIDTH 6 0
BBX 6 8 0 0
BITMAP
38
7C
6C
C0
D8
D8
F8
78
ENDCHAR

STARTCHAR H
ENCODING 72
SWIDTH 592 0
DWIDTH 6 0
BBX 6 8 0 0
BITMAP
6C
6C
6C
78
78
D8
D8
D8
ENDCHAR

STARTCHAR I
ENCODING 73
SWIDTH 228 0
DWIDTH 3 0
BBX 3 8 0 0
BITMAP
60
60
60
60
C0
C0
C0
C0
ENDCHAR

STARTCHAR J
ENCODING 74
SWIDTH 456 0
DWIDTH 5 0
BBX 5 8 0 0
BITMAP
18
18
18
18
B0
F0
F0
60
ENDCHAR

STARTCHAR K
ENCODING 75
SWIDTH 592 0
DWIDTH 6 0
BBX 6 8 0 0
BITMAP
6C
7C
78
70
F0
F8
D8
D8
ENDCHAR

STARTCHAR L
ENCODING 76
SWIDTH 501 0
DWIDTH 5 0
BBX 4 8 0 0
BITMAP
60
60
60
60
C0
C0
F0
F0
ENDCHAR

STARTCHAR M
ENCODING 77
SWIDTH 683 0
DWIDTH 7 0
BBX 7 8 0 0
BITMAP
66
66
6E
FC
FC
FC
FC
FC
ENDCHAR

STARTCHAR N
ENCODING 78
SWIDTH 592 0
DWIDTH 6 0
BBX 6 8 0 0
BITMAP
4C
6C
7C
7C
F8
F8
D8
C8
ENDCHAR

STARTCHAR O
ENCODING 79
SWIDTH 638 0
DWIDTH 6 0
BBX 6 8 0 0
BITMAP
38
7C
6C
CC
CC
D8
F8
70
ENDCHAR

STARTCHAR P
ENCODING 80
SWIDTH 547 0
DWIDTH 5 0
BBX 5 8 0 0
BITMAP
70
78
68
78
F0
C0
C0
C0
ENDCHAR

STARTCHAR Q
ENCODING 81
SWIDTH 638 0
DWIDTH 6 0
BBX 6 8 0 0
BITMAP
38
6C
6C
CC
CC
D8
FC
7C
ENDCHAR

STARTCHAR R
ENCODING 82
SWIDTH 592 0
DWIDTH 6 0
BBX 6 8 0 0
BITMAP
78
6C
6C
78
D8
D8
D8
D8
ENDCHAR

STARTCHAR S
ENCODING 83
SWIDTH 547 0
DWIDTH 5 0
BBX 5 8 0 0
BITMAP
30
78
60
70
30
B0
F0
60
ENDCHAR

STARTCHAR T
ENCODING 84
SWIDTH 501 0
DWIDTH 5 0
BBX 5 8 0 0
BITMAP
F8
F8
60
60
C0
C0
C0
C0
ENDCHAR

STARTCHAR U
ENCODING 85
SWIDTH 592 0
DWIDTH 6 0
BBX 6 8 0 0
BITMAP
6C
6C
6C
6C
D8
D8
F8
78
ENDCHAR

STARTCHAR V
ENCODING 86
SWIDTH 547 0
DWIDTH 5 0
BBX 4 8 1 0
BITMAP
D0
F0
F0
E0
E0
E0
C0
C0
ENDCHAR

STARTCHAR W
ENCODING 87
SWIDTH 774 0
DWIDTH 8 0
BBX 7 8 1 0
BITMAP
D6
FE
FC
FC
FC
D8
D8
D8
ENDCHAR

STARTCHAR X
ENCODING 88
SWIDTH 547 0
DWIDTH 5 0
BBX 5 8 0 0
BITMAP
68
78
70
30
70
70
D8
D8
ENDCHAR

STARTCHAR Y
ENCODING 89
SWIDTH 547 0
DWIDTH 5 0
BBX 4 8 1 0
BITMAP
D0
F0
E0
E0
C0
C0
C0
C0
ENDCHAR

STARTCHAR Z
ENCODING 90
SWIDTH 501 0
DWIDTH 5 0
BBX 5 8 0 0
BITMAP
78
78
30
30
60
E0
F0
F0
ENDCHAR

STARTCHAR bracketleft
ENCODING 91
SWIDTH 273 0
DWIDTH 3 0
BBX 5 10 0 -2
BITMAP
38
30
30
60
60
60
60
C0
C0
E0
ENDCHAR

STARTCHAR backslash
ENCODING 92
SWIDTH 228 0
DWIDTH 2 0
BBX 2 8 0 0
BITMAP
80
80
80
80
40
40
40
40
ENDCHAR

STARTCHAR bracketright
ENCODING 93
SWIDTH 273 0
DWIDTH 3 0
BBX 5 10 -1 -2
BITMAP
38
18
18
30
30
30
30
60
60
E0
ENDCHAR

STARTCHAR asciicircum
ENCODING 94
SWIDTH 479 0
DWIDTH 5 0
BBX 4 4 1 4
BITMAP
30
70
F0
B0
ENDCHAR

STARTCHAR underscore
ENCODING 95
SWIDTH 456 0
DWIDTH 5 0
BBX 5 1 0 -1
BITMAP
F8
ENDCHAR

STARTCHAR quoteleft
ENCODING 96
SWIDTH 228 0
DWIDTH 2 0
BBX 2 3 1 5
BITMAP
40
C0
C0
ENDCHAR

STARTCHAR a
ENCODING 97
SWIDTH 456 0
DWIDTH 5 0
BBX 5 6 0 0
BITMAP
70
18
78
F0
B0
F0
ENDCHAR

STARTCHAR b
ENCODING 98
SWIDTH 501 0
DWIDTH 5 0
BBX 5 8 0 0
BITMAP
30
30
78
78
58
D0
F0
E0
ENDCHAR

STARTCHAR c
ENCODING 99
SWIDTH 456 0
DWIDTH 5 0
BBX 5 6 0 0
BITMAP
30
78
68
C0
F0
E0
ENDCHAR

STARTCHAR d
ENCODING 100
SWIDTH 501 0
DWIDTH 5 0
BBX 6 8 0 0
BITMAP
0C
0C
38
78
58
D0
F0
F0
ENDCHAR

STARTCHAR e
ENCODING 101
SWIDTH 456 0
DWIDTH 5 0
BBX 5 6 0 0
BITMAP
38
68
70
C0
F0
E0
ENDCHAR

STARTCHAR f
ENCODING 102
SWIDTH 273 0
DWIDTH 3 0
BBX 5 8 0 0
BITMAP
38
30
E0
60
60
C0
C0
C0
ENDCHAR

STARTCHAR g
ENCODING 103
SWIDTH 501 0
DWIDTH 5 0
BBX 6 8 -1 -2
BITMAP
1C
3C
2C
68
78
38
D8
70
ENDCHAR

STARTCHAR h
ENCODING 104
SWIDTH 501 0
DWIDTH 5 0
BBX 5 8 0 0
BITMAP
30
30
78
78
78
F0
F0
D0
ENDCHAR

STARTCHAR i
ENCODING 105
SWIDTH 228 0
DWIDTH 3 0
BBX 4 8 0 0
BITMAP
30
00
60
60
60
C0
C0
C0
ENDCHAR

STARTCHAR j
ENCODING 106
SWIDTH 228 0
DWIDTH 3 0
BBX 5 10 -1 -2
BITMAP
18
00
30
30
30
60
60
60
60
C0
ENDCHAR

STARTCHAR k
ENCODING 107
SWIDTH 456 0
DWIDTH 5 0
BBX 5 8 0 0
BITMAP
30
30
68
78
70
F0
F0
D8
ENDCHAR

STARTCHAR l
ENCODING 108
SWIDTH 228 0
DWIDTH 3 0
BBX 4 8 0 0
BITMAP
30
30
60
60
60
C0
C0
C0
ENDCHAR

STARTCHAR m
ENCODING 109
SWIDTH 729 0
DWIDTH 7 0
BBX 7 6 0 0
BITMAP
76
7E
7E
FC
FC
D4
ENDCHAR

STARTCHAR n
ENCODING 110
SWIDTH 501 0
DWIDTH 5 0
BBX 5 6 0 0
BITMAP
70
78
78
F0
F0
D0
ENDCHAR

STARTCHAR o
ENCODING 111
SWIDTH 501 0
DWIDTH 5 0
BBX 5 6 0 0
BITMAP
30
78
58
D0
F0
60
ENDCHAR

STARTCHAR p
ENCODING 112
SWIDTH 501 0
DWIDTH 5 0
BBX 6 8 -1 -2
BITMAP
38
3C
2C
68
78
70
C0
C0
ENDCHAR

STARTCHAR q
ENCODING 113
SWIDTH 501 0
DWIDTH 5 0
BBX 5 8 0 -2
BITMAP
38
78
58
D0
F0
70
60
60
ENDCHAR

STARTCHAR r
ENCODING 114
SWIDTH 319 0
DWIDTH 3 0
BBX 4 6 0 0
BITMAP
70
60
60
C0
C0
C0
ENDCHAR

STARTCHAR s
ENCODING 115
SWIDTH 456 0
DWIDTH 5 0
BBX 5 6 0 0
BITMAP
38
68
70
30
F0
60
ENDCHAR

STARTCHAR t
ENCODING 116
SWIDTH 273 0
DWIDTH 3 0
BBX 4 8 0 0
BITMAP
30
30
F0
60
60
C0
C0
E0
ENDCHAR

STARTCHAR u
ENCODING 117
SWIDTH 501 0
DWIDTH 5 0
BBX 5 6 0 0
BITMAP
58
78
78
F0
F0
70
ENDCHAR

STARTCHAR v
ENCODING 118
SWIDTH 456 0
DWIDTH 5 0
BBX 4 6 1 0
BITMAP
D0
F0
F0
E0
E0
40
ENDCHAR

STARTCHAR w
ENCODING 119
SWIDTH 638 0
DWIDTH 6 0
BBX 5 6 1 0
BITMAP
A8
F8
F8
F0
F0
70
ENDCHAR

STARTCHAR x
ENCODING 120
SWIDTH 456 0
DWIDTH 5 0
BBX 5 6 0 0
BITMAP
68
78
70
70
F0
B0
ENDCHAR

STARTCHAR y
ENCODING 121
SWIDTH 456 0
DWIDTH 5 0
BBX 6 8 -1 -2
BITMAP
2C
3C
38
38
30
30
60
E0
ENDCHAR

STARTCHAR z
ENCODING 122
SWIDTH 410 0
DWIDTH 4 0
BBX 4 6 0 0
BITMAP
70
70
30
60
F0
F0
ENDCHAR

STARTCHAR braceleft
ENCODING 123
SWIDTH 319 0
DWIDTH 3 0
BBX 4 10 0 -2
BITMAP
10
20
60
60
C0
60
C0
C0
C0
40
ENDCHAR

STARTCHAR bar
ENCODING 124
SWIDTH 230 0
DWIDTH 2 0
BBX 2 10 0 -2
BITMAP
40
40
40
40
40
80
80
80
80
80
ENDCHAR

STARTCHAR braceright
ENCODING 125
SWIDTH 319 0
DWIDTH 3 0
BBX 4 10 -1 -2
BITMAP
20
30
30
60
30
60
60
60
40
80
ENDCHAR

STARTCHAR asciitilde
ENCODING 126
SWIDTH 479 0
DWIDTH 5 0
BBX 5 2 0 2
BITMAP
E8
B8
ENDCHAR

STARTCHAR exclamdown
ENCODING 161
SWIDTH 273 0
DWIDTH 3 0
BBX 4 8 0 -2
BITMAP
30
00
60
60
60
C0
C0
C0
ENDCHAR

STARTCHAR cent
ENCODING 162
SWIDTH 456 0
DWIDTH 5 0
BBX 4 8 0 -1
BITMAP
20
70
70
E0
E0
F0
60
40
ENDCHAR

STARTCHAR sterling
ENCODING 163
SWIDTH 456 0
DWIDTH 5 0
BBX 5 8 0 0
BITMAP
30
78
68
F0
60
60
C0
F0
ENDCHAR

STARTCHAR currency
ENCODING 164
SWIDTH 456 0
DWIDTH 5 0
BBX 5 5 0 1
BITMAP
58
70
D8
70
D0
ENDCHAR

STARTCHAR yen
ENCODING 165
SWIDTH 456 0
DWIDTH 5 0
BBX 5 8 0 0
BITMAP
D8
D8
70
F0
60
F0
60
60
ENDCHAR

STARTCHAR brokenbar
ENCODING 166
SWIDTH 230 0
DWIDTH 2 0
BBX 2 10 0 -2
BITMAP
40
40
40
40
00
00
80
80
80
80
ENDCHAR

STARTCHAR section
ENCODING 167
SWIDTH 456 0
DWIDTH 5 0
BBX 4 10 0 -2
BITMAP
30
50
40
E0
B0
D0
70
20
A0
C0
ENDCHAR

STARTCHAR dieresis
ENCODING 168
SWIDTH 273 0
DWIDTH 3 0
BBX 3 1 1 7
BITMAP
A0
ENDCHAR

STARTCHAR copyright
ENCODING 169
SWIDTH 604 0
DWIDTH 6 0
BBX 6 8 0 0
BITMAP
30
48
B4
A4
A4
B4
48
30
ENDCHAR

STARTCHAR ordfeminine
ENCODING 170
SWIDTH 303 0
DWIDTH 3 0
BBX 3 6 1 2
BITMAP
60
20
E0
C0
00
C0
ENDCHAR

STARTCHAR guillemotleft
ENCODING 171
SWIDTH 456 0
DWIDTH 5 0
BBX 4 4 0 1
BITMAP
50
A0
A0
50
ENDCHAR

STARTCHAR logicalnot
ENCODING 172
SWIDTH 479 0
DWIDTH 5 0
BBX 4 3 1 2
BITMAP
F0
10
10
ENDCHAR

STARTCHAR hyphen
ENCODING 173
SWIDTH 273 0
DWIDTH 3 0
BBX 2 1 1 3
BITMAP
C0
ENDCHAR

STARTCHAR registered
ENCODING 174
SWIDTH 604 0
DWIDTH 6 0
BBX 6 8 0 0
BITMAP
30
48
B4
B4
B4
AC
48
30
ENDCHAR

STARTCHAR macron
ENCODING 175
SWIDTH 273 0
DWIDTH 3 0
BBX 3 1 1 7
BITMAP
E0
ENDCHAR

STARTCHAR degree
ENCODING 176
SWIDTH 328 0
DWIDTH 5 0
BBX 3 3 2 5
BITMAP
60
A0
C0
ENDCHAR

STARTCHAR plusminus
ENCODING 177
SWIDTH 479 0
DWIDTH 5 0
BBX 4 5 1 1
BITMAP
20
70
20
00
E0
ENDCHAR

STARTCHAR twosuperior
ENCODING 178
SWIDTH 273 0
DWIDTH 3 0
BBX 3 4 1 4
BITMAP
60
20
40
E0
ENDCHAR

STARTCHAR threesuperior
ENCODING 179
SWIDTH 273 0
DWIDTH 3 0
BBX 3 4 2 4
BITMAP
60
60
20
C0
ENDCHAR

STARTCHAR acute
ENCODING 180
SWIDTH 273 0
DWIDTH 3 0
BBX 2 2 2 6
BITMAP
40
80
ENDCHAR

STARTCHAR mu
ENCODING 181
SWIDTH 501 0
DWIDTH 5 0
BBX 6 8 -1 -2
BITMAP
2C
3C
3C
78
78
78
C0
C0
ENDCHAR

STARTCHAR paragraph
ENCODING 182
SWIDTH 456 0
DWIDTH 5 0
BBX 5 10 0 -2
BITMAP
78
F8
F0
F0
30
30
60
60
60
60
ENDCHAR

STARTCHAR periodcentered
ENCODING 183
SWIDTH 228 0
DWIDTH 4 0
BBX 1 2 2 4
BITMAP
80
80
ENDCHAR

STARTCHAR cedilla
ENCODING 184
SWIDTH 273 0
DWIDTH 3 0
BBX 2 2 0 -2
BITMAP
40
80
ENDCHAR

STARTCHAR onesuperior
ENCODING 185
SWIDTH 273 0
DWIDTH 3 0
BBX 2 4 2 4
BITMAP
40
40
80
80
ENDCHAR

STARTCHAR ordmasculine
ENCODING 186
SWIDTH 299 0
DWIDTH 3 0
BBX 3 6 1 2
BITMAP
60
A0
A0
C0
00
C0
ENDCHAR

STARTCHAR guillemotright
ENCODING 187
SWIDTH 456 0
DWIDTH 5 0
BBX 4 4 0 1
BITMAP
A0
50
50
A0
ENDCHAR

STARTCHAR onequarter
ENCODING 188
SWIDTH 684 0
DWIDTH 7 0
BBX 7 8 0 0
BITMAP
48
48
90
90
24
2C
5C
48
ENDCHAR

STARTCHAR onehalf
ENCODING 189
SWIDTH 684 0
DWIDTH 7 0
BBX 7 8 0 0
BITMAP
48
48
90
90
2C
24
48
5C
ENDCHAR

STARTCHAR threequarters
ENCODING 190
SWIDTH 684 0
DWIDTH 7 0
BBX 7 8 0 0
BITMAP
68
68
30
D0
24
2C
5C
48
ENDCHAR

STARTCHAR questiondown
ENCODING 191
SWIDTH 501 0
DWIDTH 5 0
BBX 4 8 0 -2
BITMAP
30
30
00
20
40
D0
B0
E0
ENDCHAR

STARTCHAR Agrave
ENCODING 192
SWIDTH 592 0
DWIDTH 6 0
BBX 5 10 0 0
BITMAP
10
08
18
38
38
78
78
78
D8
D8
ENDCHAR

STARTCHAR Aacute
ENCODING 193
SWIDTH 592 0
DWIDTH 6 0
BBX 5 10 0 0
BITMAP
08
10
18
38
38
78
78
78
D8
D8
ENDCHAR

STARTCHAR Acircumflex
ENCODING 194
SWIDTH 592 0
DWIDTH 6 0
BBX 6 10 0 0
BITMAP
08
14
18
38
38
78
78
78
D8
D8
ENDCHAR

STARTCHAR Atilde
ENCODING 195
SWIDTH 592 0
DWIDTH 6 0
BBX 6 10 0 0
BITMAP
14
28
18
38
38
78
78
78
D8
D8
ENDCHAR

STARTCHAR Adieresis
ENCODING 196
SWIDTH 592 0
DWIDTH 6 0
BBX 6 10 0 0
BITMAP
14
00
18
38
38
78
78
78
D8
D8
ENDCHAR

STARTCHAR Aring
ENCODING 197
SWIDTH 592 0
DWIDTH 6 0
BBX 6 10 0 0
BITMAP
08
14
18
38
38
78
78
78
D8
D8
ENDCHAR

STARTCHAR AE
ENCODING 198
SWIDTH 820 0
DWIDTH 8 0
BBX 8 8 0 0
BITMAP
1F
1F
3C
3E
7E
78
DE
DE
ENDCHAR

STARTCHAR Ccedilla
ENCODING 199
SWIDTH 592 0
DWIDTH 6 0
BBX 6 10 0 -2
BITMAP
38
7C
6C
C0
C0
D8
F8
70
20
40
ENDCHAR

STARTCHAR Egrave
ENCODING 200
SWIDTH 547 0
DWIDTH 5 0
BBX 6 10 0 0
BITMAP
20
10
78
78
60
70
F0
C0
F0
F0
ENDCHAR

STARTCHAR Eacute
ENCODING 201
SWIDTH 547 0
DWIDTH 5 0
BBX 6 10 0 0
BITMAP
10
20
78
78
60
70
F0
C0
F0
F0
ENDCHAR

STARTCHAR Ecircumflex
ENCODING 202
SWIDTH 547 0
DWIDTH 5 0
BBX 6 10 0 0
BITMAP
10
28
78
78
60
70
F0
C0
F0
F0
ENDCHAR

STARTCHAR Edieresis
ENCODING 203
SWIDTH 547 0
DWIDTH 5 0
BBX 6 10 0 0
BITMAP
28
00
78
78
60
70
F0
C0
F0
F0
ENDCHAR

STARTCHAR Igrave
ENCODING 204
SWIDTH 228 0
DWIDTH 3 0
BBX 3 10 0 0
BITMAP
40
20
60
60
60
60
C0
C0
C0
C0
ENDCHAR

STARTCHAR Iacute
ENCODING 205
SWIDTH 228 0
DWIDTH 3 0
BBX 3 10 0 0
BITMAP
20
40
60
60
60
60
C0
C0
C0
C0
ENDCHAR

STARTCHAR Icircumflex
ENCODING 206
SWIDTH 228 0
DWIDTH 3 0
BBX 3 10 0 0
BITMAP
40
A0
60
60
60
60
C0
C0
C0
C0
ENDCHAR

STARTCHAR Idieresis
ENCODING 207
SWIDTH 228 0
DWIDTH 3 0
BBX 4 10 0 0
BITMAP
50
00
60
60
60
60
C0
C0
C0
C0
ENDCHAR

STARTCHAR Eth
ENCODING 208
SWIDTH 592 0
DWIDTH 6 0
BBX 6 8 0 0
BITMAP
78
7C
6C
FC
6C
D8
F8
F0
ENDCHAR

STARTCHAR Ntilde
ENCODING 209
SWIDTH 592 0
DWIDTH 6 0
BBX 6 10 0 0
BITMAP
14
28
4C
6C
7C
7C
F8
F8
D8
C8
ENDCHAR

STARTCHAR Ograve
ENCODING 210
SWIDTH 638 0
DWIDTH 6 0
BBX 6 10 0 0
BITMAP
20
10
38
7C
6C
CC
CC
D8
F8
70
ENDCHAR

STARTCHAR Oacute
ENCODING 211
SWIDTH 638 0
DWIDTH 6 0
BBX 6 10 0 0
BITMAP
08
10
38
7C
6C
CC
CC
D8
F8
70
ENDCHAR

STARTCHAR Ocircumflex
ENCODING 212
SWIDTH 638 0
DWIDTH 6 0
BBX 6 10 0 0
BITMAP
10
28
38
7C
6C
CC
CC
D8
F8
70
ENDCHAR

STARTCHAR Otilde
ENCODING 213
SWIDTH 638 0
DWIDTH 6 0
BBX 6 10 0 0
BITMAP
14
28
38
7C
6C
CC
CC
D8
F8
70
ENDCHAR

STARTCHAR Odieresis
ENCODING 214
SWIDTH 638 0
DWIDTH 6 0
BBX 6 10 0 0
BITMAP
28
00
38
7C
6C
CC
CC
D8
F8
70
ENDCHAR

STARTCHAR multiply
ENCODING 215
SWIDTH 479 0
DWIDTH 5 0
BBX 4 4 1 1
BITMAP
90
60
60
90
ENDCHAR

STARTCHAR Oslash
ENCODING 216
SWIDTH 638 0
DWIDTH 6 0
BBX 6 8 0 0
BITMAP
3C
7C
6C
DC
EC
D8
F8
F0
ENDCHAR

STARTCHAR Ugrave
ENCODING 217
SWIDTH 592 0
DWIDTH 6 0
BBX 6 10 0 0
BITMAP
20
10
6C
6C
6C
6C
D8
D8
F8
78
ENDCHAR

STARTCHAR Uacute
ENCODING 218
SWIDTH 592 0
DWIDTH 6 0
BBX 6 10 0 0
BITMAP
08
10
6C
6C
6C
6C
D8
D8
F8
78
ENDCHAR

STARTCHAR Ucircumflex
ENCODING 219
SWIDTH 592 0
DWIDTH 6 0
BBX 6 10 0 0
BITMAP
10
28
6C
6C
6C
6C
D8
D8
F8
78
ENDCHAR

STARTCHAR Udieresis
ENCODING 220
SWIDTH 592 0
DWIDTH 6 0
BBX 6 10 0 0
BITMAP
14
00
6C
6C
6C
6C
D8
D8
F8
78
ENDCHAR

STARTCHAR Yacute
ENCODING 221
SWIDTH 547 0
DWIDTH 5 0
BBX 5 10 1 0
BITMAP
20
40
D0
F0
E0
E0
C0
C0
C0
C0
ENDCHAR

STARTCHAR Thorn
ENCODING 222
SWIDTH 547 0
DWIDTH 5 0
BBX 5 8 0 0
BITMAP
60
60
78
78
F8
F0
C0
C0
ENDCHAR

STARTCHAR germandbls
ENCODING 223
SWIDTH 501 0
DWIDTH 5 0
BBX 5 8 0 0
BITMAP
30
78
68
70
F0
D0
D0
E0
ENDCHAR

STARTCHAR agrave
ENCODING 224
SWIDTH 456 0
DWIDTH 5 0
BBX 5 8 0 0
BITMAP
20
10
70
18
78
F0
B0
F0
ENDCHAR

STARTCHAR aacute
ENCODING 225
SWIDTH 456 0
DWIDTH 5 0
BBX 5 8 0 0
BITMAP
10
20
70
18
78
F0
B0
F0
ENDCHAR

STARTCHAR acircumflex
ENCODING 226
SWIDTH 456 0
DWIDTH 5 0
BBX 5 8 0 0
BITMAP
10
28
70
18
78
F0
B0
F0
ENDCHAR

STARTCHAR atilde
ENCODING 227
SWIDTH 456 0
DWIDTH 5 0
BBX 5 8 0 0
BITMAP
28
50
70
10
70
F0
B0
F0
ENDCHAR

STARTCHAR adieresis
ENCODING 228
SWIDTH 456 0
DWIDTH 5 0
BBX 5 8 0 0
BITMAP
28
00
70
18
78
F0
B0
F0
ENDCHAR

STARTCHAR aring
ENCODING 229
SWIDTH 456 0
DWIDTH 5 0
BBX 5 8 0 0
BITMAP
10
28
70
18
78
F0
B0
F0
ENDCHAR

STARTCHAR ae
ENCODING 230
SWIDTH 729 0
DWIDTH 7 0
BBX 7 6 0 0
BITMAP
7E
1A
7C
F0
BC
F8
ENDCHAR

STARTCHAR ccedilla
ENCODING 231
SWIDTH 456 0
DWIDTH 5 0
BBX 5 8 0 -2
BITMAP
30
78
68
C0
F0
E0
40
80
ENDCHAR

STARTCHAR egrave
ENCODING 232
SWIDTH 456 0
DWIDTH 5 0
BBX 5 8 0 0
BITMAP
10
08
38
68
70
C0
F0
E0
ENDCHAR

STARTCHAR eacute
ENCODING 233
SWIDTH 456 0
DWIDTH 5 0
BBX 5 8 0 0
BITMAP
08
10
38
68
70
C0
F0
E0
ENDCHAR

STARTCHAR ecircumflex
ENCODING 234
SWIDTH 456 0
DWIDTH 5 0
BBX 5 8 0 0
BITMAP
10
28
38
68
70
C0
F0
E0
ENDCHAR

STARTCHAR edieresis
ENCODING 235
SWIDTH 456 0
DWIDTH 5 0
BBX 5 8 0 0
BITMAP
28
00
38
68
70
C0
F0
E0
ENDCHAR

STARTCHAR igrave
ENCODING 236
SWIDTH 228 0
DWIDTH 3 0
BBX 3 8 0 0
BITMAP
40
20
60
60
60
C0
C0
C0
ENDCHAR

STARTCHAR iacute
ENCODING 237
SWIDTH 228 0
DWIDTH 3 0
BBX 3 8 0 0
BITMAP
20
40
60
60
60
C0
C0
C0
ENDCHAR

STARTCHAR icircumflex
ENCODING 238
SWIDTH 228 0
DWIDTH 3 0
BBX 4 8 0 0
BITMAP
20
50
60
60
60
C0
C0
C0
ENDCHAR

STARTCHAR idieresis
ENCODING 239
SWIDTH 228 0
DWIDTH 3 0
BBX 3 8 0 0
BITMAP
A0
00
60
60
60
C0
C0
C0
ENDCHAR

STARTCHAR eth
ENCODING 240
SWIDTH 501 0
DWIDTH 5 0
BBX 5 8 0 0
BITMAP
68
50
30
78
58
D0
F0
60
ENDCHAR

STARTCHAR ntilde
ENCODING 241
SWIDTH 501 0
DWIDTH 5 0
BBX 5 8 0 0
BITMAP
80
00
70
78
78
F0
F0
D0
ENDCHAR

STARTCHAR ograve
ENCODING 242
SWIDTH 501 0
DWIDTH 5 0
BBX 5 8 0 0
BITMAP
20
10
30
78
58
D0
F0
60
ENDCHAR

STARTCHAR oacute
ENCODING 243
SWIDTH 501 0
DWIDTH 5 0
BBX 5 8 0 0
BITMAP
10
20
30
78
58
D0
F0
60
ENDCHAR

STARTCHAR ocircumflex
ENCODING 244
SWIDTH 501 0
DWIDTH 5 0
BBX 5 8 0 0
BITMAP
10
28
30
78
58
D0
F0
60
ENDCHAR

STARTCHAR otilde
ENCODING 245
SWIDTH 501 0
DWIDTH 5 0
BBX 5 8 0 0
BITMAP
28
50
30
78
58
D0
F0
60
ENDCHAR

STARTCHAR odieresis
ENCODING 246
SWIDTH 501 0
DWIDTH 5 0
BBX 5 8 0 0
BITMAP
28
00
30
78
58
D0
F0
60
ENDCHAR

STARTCHAR divide
ENCODING 247
SWIDTH 479 0
DWIDTH 5 0
BBX 4 5 1 1
BITMAP
20
00
F0
00
40
ENDCHAR

STARTCHAR oslash
ENCODING 248
SWIDTH 501 0
DWIDTH 5 0
BBX 6 6 0 0
BITMAP
38
78
78
D0
F0
E0
ENDCHAR

STARTCHAR ugrave
ENCODING 249
SWIDTH 501 0
DWIDTH 5 0
BBX 5 8 0 0
BITMAP
20
10
58
78
78
F0
F0
70
ENDCHAR

STARTCHAR uacute
ENCODING 250
SWIDTH 501 0
DWIDTH 5 0
BBX 5 8 0 0
BITMAP
10
20
58
78
78
F0
F0
70
ENDCHAR

STARTCHAR ucircumflex
ENCODING 251
SWIDTH 501 0
DWIDTH 5 0
BBX 5 8 0 0
BITMAP
10
28
58
78
78
F0
F0
70
ENDCHAR

STARTCHAR udieresis
ENCODING 252
SWIDTH 501 0
DWIDTH 5 0
BBX 5 8 0 0
BITMAP
28
00
58
78
78
F0
F0
70
ENDCHAR

STARTCHAR yacute
ENCODING 253
SWIDTH 456 0
DWIDTH 5 0
BBX 5 10 -1 -2
BITMAP
08
10
28
38
38
38
30
30
60
E0
ENDCHAR

STARTCHAR thorn
ENCODING 254
SWIDTH 501 0
DWIDTH 5 0
BBX 6 10 -1 -2
BITMAP
30
30
38
3C
6C
68
78
70
C0
C0
ENDCHAR

STARTCHAR ydieresis
ENCODING 255
SWIDTH 456 0
DWIDTH 5 0
BBX 6 10 -1 -2
BITMAP
14
00
28
38
38
38
30
30
60
E0
ENDCHAR
ENDFONT
